<svg width="108" height="91" viewBox="0 0 108 91" fill="none" xmlns="http://www.w3.org/2000/svg">
<path fill-rule="evenodd" clip-rule="evenodd" d="M72.5714 27.8571H68.2857V25H65.4286V27.8571H42.5714V25H39.7143V27.8571H35.4286L34 29.2857V63.5714L35.4286 65H72.5714L74 63.5714V29.2857L72.5714 27.8571ZM71.1429 62.1429H36.8571V36.4286H71.1429V62.1429ZM71.1429 33.5714H36.8571V30.7143H71.1429V33.5714ZM42.5714 45H39.7143V47.8571H42.5714V45ZM39.7143 50.7143H42.5714V53.5714H39.7143V50.7143ZM42.5714 56.4286H39.7143V59.2857H42.5714V56.4286ZM48.2857 45H51.1429V47.8571H48.2857V45ZM51.1429 50.7143H48.2857V53.5714H51.1429V50.7143ZM48.2857 56.4286H51.1429V59.2857H48.2857V56.4286ZM51.1429 39.2857H48.2857V42.1429H51.1429V39.2857ZM56.8571 45H59.7143V47.8571H56.8571V45ZM59.7143 50.7143H56.8571V53.5714H59.7143V50.7143ZM56.8571 56.4286H59.7143V59.2857H56.8571V56.4286ZM59.7143 39.2857H56.8571V42.1429H59.7143V39.2857ZM65.4286 45H68.2857V47.8571H65.4286V45ZM68.2857 50.7143H65.4286V53.5714H68.2857V50.7143ZM65.4286 39.2857H68.2857V42.1429H65.4286V39.2857Z" fill="white"/>
</svg>
