<svg width="105" height="109" viewBox="0 0 105 109" fill="none" xmlns="http://www.w3.org/2000/svg">
<path d="M52 27L52 57.1014M52.0305 57.5717L67 74" stroke="#474C76" stroke-width="5" stroke-linecap="round"/>
<mask id="path-2-inside-1" fill="white">
<path fill-rule="evenodd" clip-rule="evenodd" d="M59.6342 13L79.1952 15.235L66.3575 0.300659L65.8892 5.7227C61.6148 4.59863 57.1273 3.99998 52.5 3.99998C23.5051 3.99998 0 27.505 0 56.5C0 85.4949 23.5051 109 52.5 109C81.4949 109 105 85.4949 105 56.5C105 43.3458 102.493 36.7122 94.5 27.5L89.0476 26.1579C95.8871 34.3871 100 44.9632 100 56.5C100 82.7335 78.7335 104 52.5 104C26.2665 104 5 82.7335 5 56.5C5 30.2665 26.2665 8.99998 52.5 8.99998C56.0761 8.99998 59.5598 9.39516 62.91 10.1442L59.6342 13Z"/>
</mask>
<path fill-rule="evenodd" clip-rule="evenodd" d="M59.6342 13L79.1952 15.235L66.3575 0.300659L65.8892 5.7227C61.6148 4.59863 57.1273 3.99998 52.5 3.99998C23.5051 3.99998 0 27.505 0 56.5C0 85.4949 23.5051 109 52.5 109C81.4949 109 105 85.4949 105 56.5C105 43.3458 102.493 36.7122 94.5 27.5L89.0476 26.1579C95.8871 34.3871 100 44.9632 100 56.5C100 82.7335 78.7335 104 52.5 104C26.2665 104 5 82.7335 5 56.5C5 30.2665 26.2665 8.99998 52.5 8.99998C56.0761 8.99998 59.5598 9.39516 62.91 10.1442L59.6342 13Z" fill="#474C76"/>
<path d="M79.1952 15.235L79.0817 16.2286L81.6169 16.5182L79.9535 14.5832L79.1952 15.235ZM59.6342 13L58.9771 12.2462L57.268 13.7362L59.5207 13.9935L59.6342 13ZM66.3575 0.300659L67.1158 -0.351209L65.5658 -2.15439L65.3612 0.214617L66.3575 0.300659ZM65.8892 5.7227L65.6349 6.68982L66.7833 6.99184L66.8855 5.80875L65.8892 5.7227ZM94.5 27.5L95.2553 26.8446L95.0473 26.6048L94.739 26.529L94.5 27.5ZM89.0476 26.1579L89.2866 25.1869L86.3368 24.4608L88.2785 26.7971L89.0476 26.1579ZM62.91 10.1442L63.5671 10.898L65.0566 9.5995L63.1282 9.16832L62.91 10.1442ZM79.3087 14.2415L59.7477 12.0065L59.5207 13.9935L79.0817 16.2286L79.3087 14.2415ZM65.5992 0.952528L78.4369 15.8869L79.9535 14.5832L67.1158 -0.351209L65.5992 0.952528ZM66.8855 5.80875L67.3538 0.386701L65.3612 0.214617L64.8929 5.63666L66.8855 5.80875ZM66.1436 4.75559C61.7868 3.60987 57.2139 2.99998 52.5 2.99998V4.99998C57.0407 4.99998 61.4427 5.58739 65.6349 6.68982L66.1436 4.75559ZM52.5 2.99998C22.9528 2.99998 -1 26.9527 -1 56.5H1C1 28.0573 24.0573 4.99998 52.5 4.99998V2.99998ZM-1 56.5C-1 86.0472 22.9528 110 52.5 110V108C24.0573 108 1 84.9426 1 56.5H-1ZM52.5 110C82.0472 110 106 86.0472 106 56.5H104C104 84.9426 80.9427 108 52.5 108V110ZM106 56.5C106 49.8633 105.369 44.7863 103.687 40.1789C102.004 35.5676 99.2956 31.501 95.2553 26.8446L93.7447 28.1554C97.6978 32.7112 100.24 36.5674 101.808 40.8646C103.378 45.1656 104 49.9825 104 56.5H106ZM94.739 26.529L89.2866 25.1869L88.8086 27.1289L94.261 28.471L94.739 26.529ZM88.2785 26.7971C94.9743 34.8534 99 45.2053 99 56.5H101C101 44.7212 96.7999 33.9209 89.8166 25.5187L88.2785 26.7971ZM99 56.5C99 82.1812 78.1812 103 52.5 103V105C79.2858 105 101 83.2858 101 56.5H99ZM52.5 103C26.8188 103 6 82.1812 6 56.5H4C4 83.2858 25.7142 105 52.5 105V103ZM6 56.5C6 30.8187 26.8188 9.99998 52.5 9.99998V7.99998C25.7142 7.99998 4 29.7142 4 56.5H6ZM52.5 9.99998C56.0022 9.99998 59.4128 10.387 62.6918 11.1201L63.1282 9.16832C59.7069 8.40335 56.1499 7.99998 52.5 7.99998V9.99998ZM60.2913 13.7538L63.5671 10.898L62.2529 9.39045L58.9771 12.2462L60.2913 13.7538Z" fill="#474C76" mask="url(#path-2-inside-1)"/>
</svg>
