<svg width="47" height="87" viewBox="0 0 47 87" fill="none" xmlns="http://www.w3.org/2000/svg">
<path d="M20.4706 0H25.5882V10.2865C42.4253 11.0081 46.0588 18.9097 46.0588 25.5882H40.9412C40.9412 18.7971 34.9126 15.3529 23.0294 15.3529C18.8329 15.3529 5.11765 16.1871 5.11765 26.8625C5.11765 31.3251 5.11765 36.3814 23.6486 41.0179L31.8676 43.5C44.8306 48.285 46.0588 54.1038 46.0588 60.1375C46.0588 69.7638 38.2902 75.9664 25.5882 76.6931V87H20.4706V76.7135C3.63353 75.9919 0 68.0903 0 61.4118H5.11765C5.11765 68.2029 11.1462 71.6471 23.0294 71.6471C27.2259 71.6471 40.9412 70.8129 40.9412 60.1375C40.9412 55.6749 40.9412 50.6186 22.4102 45.9821L14.1912 43.5C1.22823 38.715 0 32.8962 0 26.8625C0 17.2362 7.76859 11.0336 20.4706 10.3069V0Z" fill="#474C76"/>
</svg>
