<svg width="36" height="36" viewBox="0 0 36 36" fill="none" xmlns="http://www.w3.org/2000/svg">
<path fill-rule="evenodd" clip-rule="evenodd" d="M3.60039 7.2002C3.28213 7.2002 2.97691 7.32662 2.75186 7.55167C2.52682 7.77671 2.40039 8.08194 2.40039 8.4002C2.40039 8.71846 2.52682 9.02368 2.75186 9.24872C2.97691 9.47377 3.28213 9.6002 3.60039 9.6002H32.4004C32.7186 9.6002 33.0239 9.47377 33.2489 9.24872C33.474 9.02368 33.6004 8.71846 33.6004 8.4002C33.6004 8.08194 33.474 7.77671 33.2489 7.55167C33.0239 7.32662 32.7186 7.2002 32.4004 7.2002H3.60039ZM2.40039 18.0002C2.40039 17.6819 2.52682 17.3767 2.75186 17.1517C2.97691 16.9266 3.28213 16.8002 3.60039 16.8002H32.4004C32.7186 16.8002 33.0239 16.9266 33.2489 17.1517C33.474 17.3767 33.6004 17.6819 33.6004 18.0002C33.6004 18.3185 33.474 18.6237 33.2489 18.8487C33.0239 19.0738 32.7186 19.2002 32.4004 19.2002H3.60039C3.28213 19.2002 2.97691 19.0738 2.75186 18.8487C2.52682 18.6237 2.40039 18.3185 2.40039 18.0002ZM2.40039 27.6002C2.40039 27.2819 2.52682 26.9767 2.75186 26.7517C2.97691 26.5266 3.28213 26.4002 3.60039 26.4002H32.4004C32.7186 26.4002 33.0239 26.5266 33.2489 26.7517C33.474 26.9767 33.6004 27.2819 33.6004 27.6002C33.6004 27.9185 33.474 28.2237 33.2489 28.4487C33.0239 28.6738 32.7186 28.8002 32.4004 28.8002H3.60039C3.28213 28.8002 2.97691 28.6738 2.75186 28.4487C2.52682 28.2237 2.40039 27.9185 2.40039 27.6002Z" fill="white"/>
</svg>
