<svg width="22" height="19" viewBox="0 0 22 19" fill="none" xmlns="http://www.w3.org/2000/svg">
<path d="M5.56492 0.000859027L2.52277 2.8199L1.33558 1.72079L0 2.95472L1.85497 4.67208L2.52277 5.26113L3.19056 4.67122L6.90051 1.2365L5.56492 0V0.000859027ZM9.94266 1.47779V3.19515H22V1.47779H9.94266ZM5.56492 6.87029L2.52277 9.6902L1.33558 8.58765L0 9.82415L1.85497 11.5415L2.52277 12.1306L3.19056 11.5407L6.90051 8.10593L5.56492 6.86944V6.87029ZM9.94266 8.34722V10.0646H22V8.34722H9.94266ZM5.56492 13.7397L2.52277 16.5588L1.33558 15.4597L0 16.6936L1.85497 18.4109L2.52277 19L3.19056 18.4101L6.90051 14.9754L5.56492 13.7389V13.7397ZM9.94266 15.2167V16.934H22V15.2167H9.94266Z" fill="#2F3045"/>
</svg>
