<svg width="108" height="91" viewBox="0 0 108 91" fill="none" xmlns="http://www.w3.org/2000/svg">
<path d="M44.118 25.0018L38.5868 30.9366L36.4283 28.6227L34 31.2205L37.3727 34.8359L38.5868 36.0761L39.801 34.8341L46.5464 27.6032L44.118 25V25.0018ZM52.0776 28.1111V31.7266H74V28.1111H52.0776ZM44.118 39.4638L38.5868 45.4004L36.4283 43.0793L34 45.6824L37.3727 49.2979L38.5868 50.538L39.801 49.2961L46.5464 42.0651L44.118 39.462V39.4638ZM52.0776 42.5731V46.1886H74V42.5731H52.0776ZM44.118 53.9257L38.5868 59.8606L36.4283 57.5467L34 60.1444L37.3727 63.7599L38.5868 65L39.801 63.7581L46.5464 56.5271L44.118 53.9239V53.9257ZM52.0776 57.0351V60.6506H74V57.0351H52.0776Z" fill="white"/>
</svg>
