<svg width="33" height="33" viewBox="0 0 33 33" fill="none" xmlns="http://www.w3.org/2000/svg">
<path d="M15.6465 29.6311C7.88048 18.3727 6.43896 17.2172 6.43896 13.0796C6.43896 7.41191 11.0335 2.81738 16.7012 2.81738C22.3688 2.81738 26.9634 7.41191 26.9634 13.0796C26.9634 17.2172 25.5218 18.3727 17.7558 29.6311C17.2462 30.3673 16.1561 30.3673 15.6465 29.6311ZM16.7012 17.3555C19.0627 17.3555 20.9771 15.4411 20.9771 13.0796C20.9771 10.718 19.0627 8.80366 16.7012 8.80366C14.3396 8.80366 12.4252 10.718 12.4252 13.0796C12.4252 15.4411 14.3396 17.3555 16.7012 17.3555Z" fill="#474C76"/>
</svg>
