<svg width="33" height="33" viewBox="0 0 33 33" fill="none" xmlns="http://www.w3.org/2000/svg">
<path d="M2.0625 28.875C2.0625 28.875 0 28.875 0 26.8125C0 24.75 2.0625 18.5625 12.375 18.5625C22.6875 18.5625 24.75 24.75 24.75 26.8125C24.75 28.875 22.6875 28.875 22.6875 28.875H2.0625ZM12.375 16.5C14.016 16.5 15.5898 15.8481 16.7502 14.6877C17.9106 13.5273 18.5625 11.9535 18.5625 10.3125C18.5625 8.67147 17.9106 7.09766 16.7502 5.93728C15.5898 4.7769 14.016 4.125 12.375 4.125C10.734 4.125 9.16016 4.7769 7.99978 5.93728C6.8394 7.09766 6.1875 8.67147 6.1875 10.3125C6.1875 11.9535 6.8394 13.5273 7.99978 14.6877C9.16016 15.8481 10.734 16.5 12.375 16.5Z" fill="#474C76"/>
<path fill-rule="evenodd" clip-rule="evenodd" d="M27.8438 10.3125C28.1173 10.3125 28.3796 10.4211 28.573 10.6145C28.7664 10.8079 28.875 11.0702 28.875 11.3438V14.4375H31.9688C32.2423 14.4375 32.5046 14.5461 32.698 14.7395C32.8914 14.9329 33 15.1952 33 15.4688C33 15.7423 32.8914 16.0046 32.698 16.198C32.5046 16.3914 32.2423 16.5 31.9688 16.5H28.875V19.5938C28.875 19.8673 28.7664 20.1296 28.573 20.323C28.3796 20.5164 28.1173 20.625 27.8438 20.625C27.5702 20.625 27.3079 20.5164 27.1145 20.323C26.9211 20.1296 26.8125 19.8673 26.8125 19.5938V16.5H23.7188C23.4452 16.5 23.1829 16.3914 22.9895 16.198C22.7961 16.0046 22.6875 15.7423 22.6875 15.4688C22.6875 15.1952 22.7961 14.9329 22.9895 14.7395C23.1829 14.5461 23.4452 14.4375 23.7188 14.4375H26.8125V11.3438C26.8125 11.0702 26.9211 10.8079 27.1145 10.6145C27.3079 10.4211 27.5702 10.3125 27.8438 10.3125Z" fill="#474C76"/>
</svg>
