<svg width="33" height="33" viewBox="0 0 33 33" fill="none" xmlns="http://www.w3.org/2000/svg">
<path d="M3.78142 23.375H20.9689C21.2302 23.3751 21.4817 23.4743 21.6726 23.6527C21.8636 23.8311 21.9797 24.0753 21.9975 24.336C22.0153 24.5966 21.9335 24.8544 21.7686 25.057C21.6037 25.2597 21.368 25.3923 21.1092 25.4279L20.9689 25.4375H3.78142C3.52014 25.4374 3.26863 25.3382 3.07771 25.1598C2.88679 24.9814 2.7707 24.7372 2.75289 24.4765C2.73508 24.2159 2.81688 23.9581 2.98177 23.7555C3.14665 23.5528 3.38233 23.4202 3.64117 23.3846L3.78142 23.375H20.9689H3.78142ZM3.78142 17.875H29.2189C29.4802 17.8751 29.7317 17.9743 29.9226 18.1527C30.1136 18.3311 30.2297 18.5753 30.2475 18.836C30.2653 19.0966 30.1835 19.3544 30.0186 19.557C29.8537 19.7597 29.618 19.8923 29.3592 19.9279L29.2189 19.9375H3.78142C3.52014 19.9374 3.26863 19.8382 3.07771 19.6598C2.88679 19.4814 2.7707 19.2372 2.75289 18.9765C2.73508 18.7159 2.81688 18.4581 2.98177 18.2555C3.14665 18.0528 3.38233 17.9202 3.64117 17.8846L3.78142 17.875H29.2189H3.78142ZM3.78142 12.375H29.2189C29.4802 12.3751 29.7317 12.4743 29.9226 12.6527C30.1136 12.8311 30.2297 13.0753 30.2475 13.336C30.2653 13.5966 30.1835 13.8544 30.0186 14.057C29.8537 14.2597 29.618 14.3923 29.3592 14.4279L29.2189 14.4375H3.78142C3.52014 14.4374 3.26863 14.3382 3.07771 14.1598C2.88679 13.9814 2.7707 13.7372 2.75289 13.4765C2.73508 13.2159 2.81688 12.9581 2.98177 12.7555C3.14665 12.5528 3.38233 12.4202 3.64117 12.3846L3.78142 12.375H29.2189H3.78142ZM3.78142 6.875H29.2189C29.4802 6.87508 29.7317 6.97434 29.9226 7.15271C30.1136 7.33109 30.2297 7.57529 30.2475 7.83596C30.2653 8.09663 30.1835 8.35435 30.0186 8.55704C29.8537 8.75972 29.618 8.89226 29.3592 8.92788L29.2189 8.9375H3.78142C3.52014 8.93742 3.26863 8.83816 3.07771 8.65979C2.88679 8.48141 2.7707 8.23721 2.75289 7.97654C2.73508 7.71587 2.81688 7.45815 2.98177 7.25546C3.14665 7.05278 3.38233 6.92024 3.64117 6.88462L3.78142 6.875H29.2189H3.78142Z" fill="#474C76"/>
</svg>
