<svg width="82" height="82" viewBox="0 0 82 82" fill="none" xmlns="http://www.w3.org/2000/svg">
<path d="M41 5.125C43.8131 5.1246 46.5248 6.17585 48.6026 8.07233C50.6804 9.9688 51.9741 12.5735 52.2299 15.375H69.7C70.4791 15.3752 71.229 15.6712 71.7983 16.2031C72.3676 16.735 72.7138 17.4631 72.7669 18.2404C72.82 19.0177 72.5761 19.7862 72.0844 20.3905C71.5927 20.9949 70.89 21.3901 70.1182 21.4963L69.7 21.525H67.3097L62.115 66.543C61.8836 68.5413 60.9258 70.3849 59.4237 71.723C57.9215 73.0611 55.9799 73.8003 53.9683 73.8H28.0317C26.02 73.8003 24.0784 73.0611 22.5763 71.723C21.0742 70.3849 20.1163 68.5413 19.885 66.543L14.6862 21.525H12.3C11.5569 21.525 10.839 21.2559 10.279 20.7675C9.71895 20.279 9.35473 19.6044 9.25368 18.8682L9.22498 18.45C9.22501 17.7069 9.49411 16.989 9.98252 16.429C10.4709 15.869 11.1456 15.5048 11.8818 15.4037L12.3 15.375H29.7701C30.0258 12.5735 31.3196 9.9688 33.3974 8.07233C35.4751 6.17585 38.1868 5.1246 41 5.125ZM34.85 30.75C33.8455 30.75 33.005 31.3855 32.8328 32.2219L32.8 32.5458V57.6583L32.8328 57.9781C33.005 58.8145 33.8455 59.45 34.85 59.45C35.8545 59.45 36.695 58.8145 36.8672 57.9781L36.9 57.6542V32.5499L36.8672 32.2219C36.695 31.3896 35.8545 30.75 34.85 30.75ZM47.15 30.75C46.1455 30.75 45.305 31.3855 45.1328 32.2219L45.1 32.5458V57.6583L45.1328 57.9781C45.305 58.8145 46.1455 59.45 47.15 59.45C48.1545 59.45 48.995 58.8145 49.1672 57.9781L49.2 57.6542V32.5499L49.1672 32.2219C48.995 31.3896 48.1545 30.7541 47.15 30.7541V30.75ZM41 11.275C38.5195 11.275 36.449 13.038 35.9775 15.375H46.0225C45.5469 13.038 43.4805 11.275 41 11.275Z" fill="white"/>
</svg>
