<svg width="345" height="112" viewBox="0 0 345 112" fill="none" xmlns="http://www.w3.org/2000/svg">
<g filter="url(#filter0_d)">
<path d="M4.7 103.3C4.3 103 4 79.6 4 51.3V0H46H88V3.5V7H50H12V51.5V96H51.5H91V70V44H95H99V74V104H52.2C26.4 104 5 103.7 4.7 103.3Z" fill="#FFA843"/>
<path d="M37.4 69.8C19.7 49 19.4 48.6 20.8 45.5C22.5 41.8 26.8 42.1 30.1 46.3C31.5 48 37 54.5 42.2 60.7L51.8 71.9L59.3 59.2C73.1 36.1 86.2 19.3 100 7.39999C104.7 3.29999 109.2 0 110.1 0C112 0 115 3.09999 115 4.89999C115 5.69999 110.4 10.6 104.9 15.9C88.5 31.4 76.6 47.3 62.9 72C59.4 78.3 56.1 83.8 55.5 84.2C52.4 86.5 50 84.6 37.4 69.8Z" fill="#474C76"/>
<path d="M129.248 33.944V27.8H155.456V33.944H146.144V95H138.56V33.944H129.248ZM191.44 47.864V74.936C191.44 83.064 190.128 88.696 187.504 91.832C184.944 94.904 181.232 96.44 176.368 96.44C171.568 96.44 167.856 94.904 165.232 91.832C162.672 88.696 161.392 83.064 161.392 74.936V47.864C161.392 39.736 162.672 34.136 165.232 31.064C167.856 27.928 171.568 26.36 176.368 26.36C181.232 26.36 184.944 27.928 187.504 31.064C190.128 34.136 191.44 39.736 191.44 47.864ZM183.856 76.376V46.424C183.856 37.208 181.392 32.6 176.464 32.6C174.096 32.6 172.24 33.592 170.896 35.576C169.616 37.56 168.976 41.176 168.976 46.424V76.376C168.976 81.624 169.616 85.24 170.896 87.224C172.24 89.208 174.096 90.2 176.464 90.2C181.392 90.2 183.856 85.592 183.856 76.376ZM199.036 68.696V62.744H217.468V68.696H199.036ZM226.392 95V27.8H239.448C244.312 27.8 248.056 29.368 250.68 32.504C253.304 35.576 254.616 41.176 254.616 49.304V73.496C254.616 81.624 253.304 87.256 250.68 90.392C248.056 93.464 244.312 95 239.448 95H226.392ZM247.032 75.224V47.672C247.032 38.52 244.504 33.944 239.448 33.944H234.072V88.952H239.448C244.504 88.952 247.032 84.376 247.032 75.224ZM294.096 47.864V74.936C294.096 83.064 292.784 88.696 290.16 91.832C287.6 94.904 283.888 96.44 279.024 96.44C274.224 96.44 270.512 94.904 267.888 91.832C265.328 88.696 264.048 83.064 264.048 74.936V47.864C264.048 39.736 265.328 34.136 267.888 31.064C270.512 27.928 274.224 26.36 279.024 26.36C283.888 26.36 287.6 27.928 290.16 31.064C292.784 34.136 294.096 39.736 294.096 47.864ZM286.512 76.376V46.424C286.512 37.208 284.048 32.6 279.12 32.6C276.752 32.6 274.896 33.592 273.552 35.576C272.272 37.56 271.632 41.176 271.632 46.424V76.376C271.632 81.624 272.272 85.24 273.552 87.224C274.896 89.208 276.752 90.2 279.12 90.2C284.048 90.2 286.512 85.592 286.512 76.376Z" fill="#474C76"/>
</g>
<defs>
<filter id="filter0_d" x="0" y="0" width="349" height="112" filterUnits="userSpaceOnUse" color-interpolation-filters="sRGB">
<feFlood flood-opacity="0" result="BackgroundImageFix"/>
<feColorMatrix in="SourceAlpha" type="matrix" values="0 0 0 0 0 0 0 0 0 0 0 0 0 0 0 0 0 0 127 0"/>
<feOffset dy="4"/>
<feGaussianBlur stdDeviation="2"/>
<feColorMatrix type="matrix" values="0 0 0 0 0 0 0 0 0 0 0 0 0 0 0 0 0 0 0.25 0"/>
<feBlend mode="normal" in2="BackgroundImageFix" result="effect1_dropShadow"/>
<feBlend mode="normal" in="SourceGraphic" in2="effect1_dropShadow" result="shape"/>
</filter>
</defs>
</svg>
