<svg width="30" height="30" viewBox="0 0 30 30" fill="none" xmlns="http://www.w3.org/2000/svg">
<path fill-rule="evenodd" clip-rule="evenodd" d="M28.9286 2.14286H25.7143V0H23.5714V2.14286H6.42857V0H4.28571V2.14286H1.07143L0 3.21429V28.9286L1.07143 30H28.9286L30 28.9286V3.21429L28.9286 2.14286ZM27.8571 27.8571H2.14286V8.57143H27.8571V27.8571ZM27.8571 6.42857H2.14286V4.28571H27.8571V6.42857ZM6.42857 15H4.28571V17.1429H6.42857V15ZM4.28571 19.2857H6.42857V21.4286H4.28571V19.2857ZM6.42857 23.5714H4.28571V25.7143H6.42857V23.5714ZM10.7143 15H12.8571V17.1429H10.7143V15ZM12.8571 19.2857H10.7143V21.4286H12.8571V19.2857ZM10.7143 23.5714H12.8571V25.7143H10.7143V23.5714ZM12.8571 10.7143H10.7143V12.8571H12.8571V10.7143ZM17.1429 15H19.2857V17.1429H17.1429V15ZM19.2857 19.2857H17.1429V21.4286H19.2857V19.2857ZM17.1429 23.5714H19.2857V25.7143H17.1429V23.5714ZM19.2857 10.7143H17.1429V12.8571H19.2857V10.7143ZM23.5714 15H25.7143V17.1429H23.5714V15ZM25.7143 19.2857H23.5714V21.4286H25.7143V19.2857ZM23.5714 10.7143H25.7143V12.8571H23.5714V10.7143Z" fill="#111111"/>
</svg>
