<svg width="30" height="30" viewBox="0 0 30 30" fill="none" xmlns="http://www.w3.org/2000/svg">
<path d="M14.9175 7C13.6138 7.00165 12.364 7.52028 11.4421 8.44213C10.5203 9.36398 10.0017 10.6138 10 11.9175H12.5C12.5 10.5837 13.585 9.5 14.9175 9.5C16.25 9.5 17.335 10.5837 17.335 11.9175C17.335 12.665 16.7338 13.2075 15.815 13.95C15.5149 14.1851 15.2266 14.435 14.9513 14.6988C13.7038 15.945 13.6675 17.2688 13.6675 17.4163V18.25H16.1675L16.1663 17.4587C16.1675 17.4387 16.2075 16.9763 16.7175 16.4675C16.905 16.28 17.1413 16.0925 17.3863 15.895C18.36 15.1063 19.8338 13.915 19.8338 11.9175C19.8328 10.6138 19.3145 9.3638 18.3928 8.44184C17.4711 7.51988 16.2212 7.00132 14.9175 7ZM13.6675 19.5H16.1675V22H13.6675V19.5Z" fill="#111111"/>
<path d="M15 0C6.729 0 0 6.729 0 15C0 23.271 6.729 30 15 30C23.271 30 30 23.271 30 15C30 6.729 23.271 0 15 0ZM15 27C8.3835 27 3 21.6165 3 15C3 8.3835 8.3835 3 15 3C21.6165 3 27 8.3835 27 15C27 21.6165 21.6165 27 15 27Z" fill="#111111"/>
</svg>
