<svg width="30" height="30" viewBox="0 0 30 30" fill="none" xmlns="http://www.w3.org/2000/svg">
<path d="M15.0168 0C16.1928 0.012308 17.3641 0.143081 18.5128 0.389242C18.7572 0.441627 18.9785 0.56602 19.1457 0.745037C19.3129 0.924054 19.4176 1.14875 19.4453 1.38773L19.7177 3.73703C19.7562 4.06824 19.8751 4.38617 20.0648 4.66522C20.2546 4.94427 20.5099 5.17665 20.8102 5.34367C21.1105 5.51069 21.4475 5.60769 21.794 5.62685C22.1405 5.64601 22.4868 5.58681 22.8052 5.454L25.0499 4.50782C25.2778 4.41143 25.5312 4.38542 25.7752 4.43337C26.0192 4.48133 26.2416 4.60089 26.4117 4.77552C28.0331 6.43878 29.2405 8.43348 29.943 10.6095C30.0167 10.8382 30.0145 11.0832 29.9367 11.3106C29.8589 11.5381 29.7094 11.7366 29.5088 11.8788L27.5189 13.2881C27.239 13.4854 27.0115 13.7433 26.8547 14.0408C26.6978 14.3383 26.6161 14.667 26.6161 15.0004C26.6161 15.3338 26.6978 15.6626 26.8547 15.9601C27.0115 16.2575 27.239 16.5154 27.5189 16.7128L29.5104 18.1205C29.7116 18.2626 29.8616 18.4613 29.9397 18.6891C30.0178 18.9168 30.0201 19.1623 29.9462 19.3913C29.2434 21.5672 28.0361 23.5619 26.4149 25.2253C26.2452 25.3996 26.0235 25.519 25.7802 25.5672C25.5368 25.6154 25.2839 25.5901 25.0563 25.4946L22.802 24.5453C22.4841 24.4115 22.1378 24.3514 21.7913 24.3699C21.4447 24.3884 21.1075 24.485 20.8071 24.6519C20.5066 24.8188 20.2513 25.0512 20.0617 25.3305C19.8722 25.6097 19.7538 25.9279 19.7161 26.2592L19.4453 28.607C19.418 28.8433 19.3153 29.0658 19.1513 29.244C18.9872 29.4222 18.7698 29.5474 18.5289 29.6024C16.2081 30.1325 13.7903 30.1325 11.4695 29.6024C11.2286 29.5474 11.0112 29.4222 10.8471 29.244C10.6831 29.0658 10.5804 28.8433 10.5531 28.607L10.2839 26.2623C10.2446 25.9318 10.1252 25.6147 9.93512 25.3366C9.74506 25.0585 9.48969 24.8271 9.18955 24.661C8.88941 24.4949 8.55287 24.3987 8.20698 24.3802C7.8611 24.3618 7.51552 24.4214 7.19804 24.5545L4.94533 25.5023C4.71746 25.5981 4.46423 25.6237 4.22058 25.5755C3.97693 25.5272 3.75487 25.4076 3.58505 25.233C1.96315 23.5678 0.755765 21.571 0.0537816 19.3928C-0.0200862 19.1638 -0.017811 18.9183 0.0602908 18.6906C0.138393 18.4629 0.288441 18.2641 0.489583 18.122L2.48113 16.7128C2.76127 16.5156 2.98909 16.2578 3.14613 15.9603C3.30316 15.6628 3.385 15.334 3.385 15.0004C3.385 14.6669 3.30316 14.338 3.14613 14.0405C2.98909 13.743 2.76127 13.4853 2.48113 13.2881L0.489583 11.8819C0.288725 11.7396 0.138995 11.5408 0.0611851 11.313C-0.0166249 11.0853 -0.0186527 10.84 0.0553837 10.6111C0.757991 8.43504 1.96536 6.44035 3.58665 4.77706C3.75679 4.60243 3.97922 4.48287 4.22319 4.43491C4.46716 4.38696 4.72063 4.41297 4.94853 4.50936L7.19163 5.45554C7.5105 5.58827 7.85734 5.64733 8.2043 5.62798C8.55126 5.60864 8.88865 5.51142 9.18938 5.34414C9.49011 5.17686 9.74579 4.94419 9.93587 4.66481C10.126 4.38543 10.2452 4.06713 10.2839 3.73549L10.5563 1.38773C10.5838 1.14827 10.6886 0.923077 10.8561 0.743735C11.0237 0.564392 11.2454 0.439895 11.4904 0.387703C12.6391 0.143081 13.8136 0.0138465 15.0168 0ZM14.9976 10.3849C13.7228 10.3849 12.5002 10.8712 11.5988 11.7368C10.6974 12.6023 10.191 13.7763 10.191 15.0004C10.191 16.2245 10.6974 17.3985 11.5988 18.2641C12.5002 19.1297 13.7228 19.6159 14.9976 19.6159C16.2724 19.6159 17.495 19.1297 18.3964 18.2641C19.2978 17.3985 19.8042 16.2245 19.8042 15.0004C19.8042 13.7763 19.2978 12.6023 18.3964 11.7368C17.495 10.8712 16.2724 10.3849 14.9976 10.3849Z" fill="#111111"/>
</svg>
