<svg width="38" height="36" viewBox="0 0 38 36" fill="none" xmlns="http://www.w3.org/2000/svg">
<path d="M10.6738 35.2596C1.40883 31.3008 -1.03045 27.5537 0.364155 22.4359C1.39371 18.6569 4.76494 15.5824 5.0882 11.8106C6.52828 13.7975 7.13002 15.2302 7.29093 17.3065C11.8711 13.052 14.8978 7.16231 15.077 0.975586C15.077 0.975586 27.0068 6.2899 27.7896 14.3172C28.8166 12.6626 29.3336 10.0348 28.3066 8.33169C31.3875 10.0349 49.4205 25.1548 25.864 35.2596C30.2929 28.7217 27.0066 19.9001 19.3168 15.8258C19.8304 17.5777 18.93 24.1117 15.528 26.9828C16.4707 22.1854 14.6312 20.1569 14.6312 20.1569C14.6312 20.1569 13.9998 22.844 11.5502 25.5585C9.3133 28.0373 7.76337 30.6682 10.6738 35.2596Z" fill="white"/>
</svg>
