<svg width="40" height="40" viewBox="0 0 40 40" fill="none" xmlns="http://www.w3.org/2000/svg">
<path fill-rule="evenodd" clip-rule="evenodd" d="M37.5 20.0004C37.5 20.3319 37.3683 20.6498 37.1339 20.8843C36.8995 21.1187 36.5815 21.2504 36.25 21.2504L6.7675 21.2504L14.635 29.1154C14.8697 29.3501 15.0016 29.6684 15.0016 30.0004C15.0016 30.3323 14.8697 30.6507 14.635 30.8854C14.4003 31.1201 14.0819 31.252 13.75 31.252C13.4181 31.252 13.0997 31.1201 12.865 30.8854L2.865 20.8854C2.74859 20.7693 2.65623 20.6313 2.59322 20.4795C2.5302 20.3276 2.49776 20.1648 2.49776 20.0004C2.49776 19.836 2.5302 19.6732 2.59322 19.5213C2.65623 19.3694 2.74859 19.2315 2.865 19.1154L12.865 9.11538C13.0997 8.88066 13.4181 8.7488 13.75 8.7488C14.0819 8.7488 14.4003 8.88066 14.635 9.11538C14.8697 9.35009 15.0016 9.66844 15.0016 10.0004C15.0016 10.3323 14.8697 10.6507 14.635 10.8854L6.7675 18.7504L36.25 18.7504C36.5815 18.7504 36.8995 18.8821 37.1339 19.1165C37.3683 19.3509 37.5 19.6689 37.5 20.0004Z" fill="white"/>
</svg>
