<svg width="117" height="87" viewBox="0 0 117 87" fill="none" xmlns="http://www.w3.org/2000/svg">
<path fill-rule="evenodd" clip-rule="evenodd" d="M95 5H23C18.5817 5 15 8.58172 15 13V31.0352C22.2653 31.5479 28 37.6042 28 45V50H89V45C89 37.268 95.268 31 103 31V13C103 8.58172 99.4183 5 95 5ZM108 31.9193V13C108 5.8203 102.18 0 95 0H23C15.8203 0 10 5.8203 10 13V31.5798C4.21702 33.3009 0 38.658 0 45V82V87H5H23H28H89H94H95H112H117V82V45C117 39.0296 113.263 33.9321 108 31.9193ZM108 37.5155C106.57 36.5583 104.85 36 103 36C98.0294 36 94 40.0294 94 45V50V55V82H95H105.248H112V45C112 41.8796 110.412 39.1301 108 37.5155ZM89 82V55H28V82H89ZM23 55V50V45C23 40.3674 19.5 36.5524 15 36.0549C14.6717 36.0186 14.338 36 14 36C12.5632 36 11.205 36.3367 10 36.9355C7.03656 38.4082 5 41.4663 5 45V82H12.7523H23V55Z" fill="#474C76"/>
</svg>
