<svg width="82" height="82" viewBox="0 0 82 82" fill="none" xmlns="http://www.w3.org/2000/svg">
<path d="M27.505 72C12.3105 64.8408 8.31007 58.0644 10.5972 48.8093C12.2857 41.9753 17.8145 36.4152 18.3446 29.5943C20.7064 33.1874 21.6932 35.7784 21.9571 39.5331C29.4686 31.8392 34.4324 21.1882 34.7263 10C34.7263 10 54.2911 19.6105 55.5749 34.1273C57.2592 31.1351 58.1071 26.3829 56.4228 23.3029C61.4755 26.383 91.0497 53.7262 52.4169 72C59.6803 60.1767 54.2908 44.2234 41.6796 36.8554C42.5219 40.0236 41.0452 51.8398 35.466 57.032C37.0119 48.3563 33.9951 44.6879 33.9951 44.6879C33.9951 44.6879 32.9597 49.5474 28.9423 54.4563C25.2738 58.939 22.7319 63.6967 27.505 72Z" fill="#FFB359"/>
</svg>
