<svg width="62" height="62" viewBox="0 0 62 62" fill="none" xmlns="http://www.w3.org/2000/svg">
<path d="M20.7965 54.439C9.30798 49.0259 6.28328 43.9023 8.01259 36.9046C9.28924 31.7374 13.4696 27.5334 13.8704 22.3762C15.6561 25.0929 16.4023 27.0519 16.6018 29.8909C22.2812 24.0736 26.0343 16.0204 26.2566 7.56097C26.2566 7.56097 41.0494 14.8275 42.0201 25.8036C43.2936 23.5412 43.9347 19.948 42.6612 17.6193C46.4815 19.9481 68.8425 40.6223 39.6324 54.439C45.1242 45.4995 41.0492 33.4372 31.5139 27.8663C32.1507 30.2617 31.0343 39.196 26.8158 43.1218C27.9847 36.5621 25.7037 33.7884 25.7037 33.7884C25.7037 33.7884 24.9208 37.4626 21.8833 41.1742C19.1095 44.5636 17.1876 48.1609 20.7965 54.439Z" fill="#FFDF6D"/>
</svg>
