<svg xmlns="http://www.w3.org/2000/svg" width="20" height="20" fill="none" viewBox="0 0 20 20">
  <path fill="#FFB800" d="M17.302 11.151c-.8-1.163-1.209-2.035-1.317-3.487-.082-1.085.374-2.338.374-2.338-.565.376-.572.336-.945.644-1.942 1.606-2.45 3.213-2.51 3.42a4.235 4.235 0 00-.005.024l.006-.024s1.518-5.94-2.708-8.705C9.847.455 9.037 0 9.037 0s2.098 5.144-1.659 8.196C6.64 5.178 2.735 5.141 2.735 5.141s.3 1.051.348 1.3c.633 3.28-1.306 4.318-1.7 7.419.045-.356.027-.215 0 .002v.003c-.308 2.434.852 4.32 2.634 5.592.083-.86.436-1.712.925-2.423.554-.804.837-1.408.912-2.412.056-.751-.26-1.618-.26-1.618.391.26.396.233.654.446 1.092.902 1.528 1.805 1.676 2.19a.522.522 0 01.015-.01c-.186-.84-.711-4.115 1.918-5.836.243-.158.803-.474.803-.474s-1.49 3.256 1.789 5.901c-.073-1.082.34-2.082 1.112-2.852.42-.418 1.177-.619 1.177-.619s-.208.728-.241.9c-.438 2.27 1.467 4.034 1.06 6.184A6.019 6.019 0 0115.22 20h.182c.966-.516 1.863-1.187 2.477-2.108 1.398-2.095.77-4.787-.576-6.74z"/>
</svg>
