<svg width="52" height="52" viewBox="0 0 52 52" fill="none" xmlns="http://www.w3.org/2000/svg">
<path d="M17.4422 45.6585C7.80667 41.1185 5.26983 36.8213 6.72021 30.9522C7.79095 26.6185 11.297 23.0925 11.6332 18.7671C13.1309 21.0457 13.7567 22.6887 13.9241 25.0698C18.6875 20.1907 21.8352 13.4364 22.0216 6.34143C22.0216 6.34143 34.4285 12.4359 35.2427 21.6417C36.3107 19.7442 36.8484 16.7306 35.7803 14.7774C38.9845 16.7307 57.7388 34.0703 33.24 45.6585C37.8461 38.1608 34.4283 28.0441 26.431 23.3717C26.9651 25.3808 26.0287 32.874 22.4907 36.1666C23.471 30.665 21.5579 28.3386 21.5579 28.3386C21.5579 28.3386 20.9013 31.4202 18.3537 34.5332C16.0273 37.3759 14.4154 40.393 17.4422 45.6585Z" fill="#FFF06D"/>
</svg>
