<svg width="32" height="32" viewBox="0 0 32 32" fill="none" xmlns="http://www.w3.org/2000/svg">
<path fill-rule="evenodd" clip-rule="evenodd" d="M15.9992 0C7.16349 0 0 7.34531 0 16.406C0 23.6541 4.58339 29.8031 10.9419 31.9711C11.7428 32.123 12.0341 31.6178 12.0341 31.1816C12.0341 30.7929 12.0201 29.7619 12.0131 28.3915C7.56226 29.3838 6.62318 26.1919 6.62318 26.1919C5.89538 24.2969 4.84636 23.793 4.84636 23.793C3.39364 22.7758 4.95672 22.7956 4.95672 22.7956C6.56246 22.9121 7.40759 24.4858 7.40759 24.4858C8.83446 26.9928 11.1528 26.2672 12.064 25.8499C12.2088 24.7878 12.6232 24.0664 13.0798 23.6554C9.52738 23.2415 5.79241 21.834 5.79241 15.5479C5.79241 13.7564 6.41559 12.2917 7.43877 11.1446C7.27508 10.7315 6.72492 9.06364 7.5959 6.80394C7.5959 6.80394 8.93908 6.3631 11.9963 8.48694C13.2718 8.1214 14.6408 7.93884 16.0016 7.93337C17.3604 7.93926 18.7298 8.1214 20.007 8.48694C23.0622 6.3631 24.4033 6.80394 24.4033 6.80394C25.2763 9.06364 24.7266 10.7315 24.5625 11.1446C25.5881 12.2917 26.2068 13.7564 26.2068 15.5479C26.2068 21.8487 22.4665 23.2369 18.9022 23.6415C19.4757 24.1484 19.9877 25.1516 19.9877 26.6824C19.9877 28.8744 19.9684 30.6432 19.9684 31.1812C19.9684 31.6207 20.256 32.1318 21.0683 31.969C27.4199 29.7964 32 23.652 32 16.406C32 7.34531 24.8365 0 15.9992 0Z" fill="url(#paint0_linear)"/>
<defs>
<linearGradient id="paint0_linear" x1="-13.76" y1="143.999" x2="47.0438" y2="144.004" gradientUnits="userSpaceOnUse">
<stop offset="0.1875" stop-color="#FFB359"/>
<stop offset="0.770833" stop-color="#2F9CEB"/>
</linearGradient>
</defs>
</svg>
