<svg width="52" height="58" viewBox="0 0 52 58" fill="none" xmlns="http://www.w3.org/2000/svg">
<path d="M51.6667 50.8166L4.35002 3.49996L0.666687 7.18329L9.73335 16.25C9.45002 17.6666 9.16669 19.0833 9.16669 20.5C9.16669 35.2333 29 57.3333 29 57.3333C29 57.3333 33.8167 51.95 38.6333 44.8666L48.2667 54.5L51.6667 50.8166ZM29 47.9833C15.9667 30.4166 14.8334 24.4666 14.8334 21.35L34.1 40.6166C32.6834 42.8833 30.9834 45.15 29 47.9833ZM18.8 10.8666L14.8334 6.89996C18.2334 2.93329 23.3334 0.666626 29 0.666626C40.05 0.666626 48.8333 9.44996 48.8333 20.5C48.8333 25.3166 46.85 30.7 44.0167 36.0833L39.7667 31.8333C43.1667 25.0333 43.1667 22.2 43.1667 20.5C43.1667 12.5666 36.9333 6.33329 29 6.33329C25.0334 6.33329 21.35 8.03329 18.8 10.8666ZM29 13.4166C32.9667 13.4166 36.0834 16.5333 36.0834 20.5C36.0834 22.4833 35.2333 24.4666 33.8167 25.8833L23.9 15.9666C25.0333 14.2666 27.0167 13.4166 29 13.4166Z" fill="#EB5757"/>
</svg>
