<svg width="24" height="24" viewBox="0 0 24 24" fill="none" xmlns="http://www.w3.org/2000/svg">
<path d="M2.81338 15.4667L1.54671 20.9334C1.50302 21.1332 1.50451 21.3403 1.5511 21.5394C1.59768 21.7386 1.68817 21.9249 1.81595 22.0846C1.94374 22.2444 2.1056 22.3735 2.2897 22.4627C2.4738 22.5519 2.67549 22.5988 2.88005 22.6C2.97536 22.6096 3.0714 22.6096 3.16671 22.6L8.66671 21.3334L19.2267 10.8134L13.3334 4.93335L2.81338 15.4667Z" stroke="#2F3045"/>
<path d="M22.5466 5.54668L18.6133 1.61335C18.3547 1.35606 18.0048 1.21162 17.64 1.21162C17.2752 1.21162 16.9252 1.35606 16.6666 1.61335L14.48 3.80002L20.3666 9.68668L22.5533 7.50002C22.6813 7.3714 22.7826 7.21882 22.8516 7.05099C22.9205 6.88317 22.9557 6.7034 22.955 6.52197C22.9544 6.34054 22.918 6.16101 22.8479 5.99366C22.7779 5.82631 22.6755 5.67442 22.5466 5.54668V5.54668Z" stroke="#2F3045"/>
</svg>
