<svg width="108" height="91" viewBox="0 0 108 91" fill="none" xmlns="http://www.w3.org/2000/svg">
<path d="M54.0224 25C55.5905 25.0164 57.1521 25.1908 58.6838 25.519C59.0097 25.5888 59.3047 25.7547 59.5276 25.9934C59.7505 26.2321 59.8902 26.5317 59.9271 26.8503L60.2903 29.9827C60.3416 30.4243 60.5001 30.8482 60.7531 31.2203C61.0061 31.5924 61.3465 31.9022 61.7469 32.1249C62.1474 32.3476 62.5967 32.4769 63.0587 32.5025C63.5207 32.528 63.9825 32.4491 64.4069 32.272L67.3998 31.0104C67.7037 30.8819 68.0416 30.8472 68.3669 30.9112C68.6922 30.9751 68.9888 31.1345 69.2157 31.3674C71.3774 33.585 72.9873 36.2446 73.924 39.146C74.0222 39.4509 74.0193 39.7776 73.9156 40.0809C73.8118 40.3841 73.6125 40.6488 73.3451 40.8384L70.6918 42.7174C70.3187 42.9806 70.0153 43.3244 69.8062 43.721C69.5971 44.1177 69.4881 44.556 69.4881 45.0006C69.4881 45.4451 69.5971 45.8834 69.8062 46.2801C70.0153 46.6767 70.3187 47.0205 70.6918 47.2837L73.3472 49.1607C73.6154 49.3501 73.8155 49.6151 73.9196 49.9188C74.0237 50.2224 74.0268 50.5497 73.9283 50.8551C72.9912 53.7563 71.3814 56.4159 69.2199 58.6338C68.9937 58.8661 68.698 59.0253 68.3735 59.0896C68.0491 59.1539 67.7119 59.1201 67.4084 58.9927L64.4026 57.7271C63.9788 57.5486 63.5171 57.4685 63.055 57.4932C62.5929 57.5179 62.1434 57.6467 61.7427 57.8692C61.3421 58.0917 61.0017 58.4016 60.749 58.7739C60.4963 59.1463 60.3384 59.5705 60.2881 60.0123L59.9271 63.1426C59.8907 63.4578 59.7538 63.7545 59.535 63.992C59.3163 64.2296 59.0264 64.3965 58.7052 64.4698C55.6109 65.1767 52.387 65.1767 49.2927 64.4698C48.9714 64.3965 48.6816 64.2296 48.4628 63.992C48.2441 63.7545 48.1072 63.4578 48.0708 63.1426L47.7119 60.0164C47.6595 59.5757 47.5002 59.153 47.2468 58.7821C46.9934 58.4113 46.6529 58.1028 46.2527 57.8813C45.8525 57.6599 45.4038 57.5316 44.9426 57.507C44.4815 57.4823 44.0207 57.5619 43.5974 57.7394L40.5938 59.003C40.2899 59.1308 39.9523 59.1649 39.6274 59.1006C39.3026 59.0363 39.0065 58.8768 38.7801 58.644C36.6175 56.4237 35.0077 53.7613 34.0717 50.8571C33.9732 50.5517 33.9763 50.2245 34.0804 49.9208C34.1845 49.6171 34.3846 49.3522 34.6528 49.1627L37.3082 47.2837C37.6817 47.0208 37.9855 46.6771 38.1948 46.2804C38.4042 45.8837 38.5133 45.4453 38.5133 45.0006C38.5133 44.5558 38.4042 44.1174 38.1948 43.7207C37.9855 43.3241 37.6817 42.9803 37.3082 42.7174L34.6528 40.8425C34.385 40.6528 34.1853 40.3877 34.0816 40.084C33.9778 39.7804 33.9751 39.4533 34.0738 39.1481C35.0107 36.2467 36.6205 33.5871 38.7822 31.3694C39.009 31.1366 39.3056 30.9772 39.6309 30.9132C39.9562 30.8493 40.2942 30.884 40.598 31.0125L43.5888 32.274C44.014 32.451 44.4765 32.5298 44.9391 32.504C45.4017 32.4782 45.8515 32.3486 46.2525 32.1255C46.6535 31.9025 46.9944 31.5923 47.2478 31.2197C47.5013 30.8472 47.6602 30.4228 47.7119 29.9807L48.075 26.8503C48.1117 26.531 48.2515 26.2308 48.4748 25.9916C48.6982 25.7525 48.9939 25.5865 49.3205 25.5169C50.8522 25.1908 52.4181 25.0185 54.0224 25ZM53.9968 38.8465C52.2971 38.8465 50.6669 39.4949 49.4651 40.649C48.2632 41.8031 47.588 43.3684 47.588 45.0006C47.588 46.6327 48.2632 48.198 49.4651 49.3521C50.6669 50.5062 52.2971 51.1546 53.9968 51.1546C55.6965 51.1546 57.3266 50.5062 58.5285 49.3521C59.7304 48.198 60.4056 46.6327 60.4056 45.0006C60.4056 43.3684 59.7304 41.8031 58.5285 40.649C57.3266 39.4949 55.6965 38.8465 53.9968 38.8465Z" fill="white"/>
</svg>
