<svg width="30" height="30" viewBox="0 0 30 30" fill="none" xmlns="http://www.w3.org/2000/svg">
<path d="M7.58853 0.00135636L3.44013 4.45248L1.82125 2.71704L0 4.66534L2.52951 7.37696L3.44013 8.30705L4.35076 7.37561L9.40978 1.95237L7.58853 0V0.00135636ZM13.5582 2.33335V5.04497H30V2.33335H13.5582ZM7.58853 10.8478L3.44013 15.3003L1.82125 13.5595L0 15.5118L2.52951 18.2234L3.44013 19.1535L4.35076 18.2221L9.40978 12.7988L7.58853 10.8465V10.8478ZM13.5582 13.1798V15.8914H30V13.1798H13.5582ZM7.58853 21.6943L3.44013 26.1454L1.82125 24.41L0 26.3583L2.52951 29.0699L3.44013 30L4.35076 29.0686L9.40978 23.6453L7.58853 21.693V21.6943ZM13.5582 24.0263V26.7379H30V24.0263H13.5582Z" fill="#111111"/>
</svg>
