<svg width="341" height="104" viewBox="0 0 341 104" fill="none" xmlns="http://www.w3.org/2000/svg">
<path d="M0.699997 103.3C0.299997 103 0 79.6 0 51.3V0H42H84V3.5V7H46H8V51.5V96H47.5H87V70V44H91H95V74V104H48.2C22.4 104 0.999997 103.7 0.699997 103.3Z" fill="#FFA843"/>
<path d="M33.4 69.8C15.7 49 15.4 48.6 16.8 45.5C18.5 41.8 22.8 42.1 26.1 46.3C27.5 48 33 54.5 38.2 60.7L47.8 71.9L55.3 59.2C69.1 36.1 82.2 19.3 96 7.39999C100.7 3.29999 105.2 0 106.1 0C108 0 111 3.09999 111 4.89999C111 5.69999 106.4 10.6 100.9 15.9C84.5 31.4 72.6 47.3 58.9 72C55.4 78.3 52.1 83.8 51.5 84.2C48.4 86.5 46 84.6 33.4 69.8Z" fill="white"/>
<path d="M125.248 33.944V27.8H151.456V33.944H142.144V95H134.56V33.944H125.248ZM187.44 47.864V74.936C187.44 83.064 186.128 88.696 183.504 91.832C180.944 94.904 177.232 96.44 172.368 96.44C167.568 96.44 163.856 94.904 161.232 91.832C158.672 88.696 157.392 83.064 157.392 74.936V47.864C157.392 39.736 158.672 34.136 161.232 31.064C163.856 27.928 167.568 26.36 172.368 26.36C177.232 26.36 180.944 27.928 183.504 31.064C186.128 34.136 187.44 39.736 187.44 47.864ZM179.856 76.376V46.424C179.856 37.208 177.392 32.6 172.464 32.6C170.096 32.6 168.24 33.592 166.896 35.576C165.616 37.56 164.976 41.176 164.976 46.424V76.376C164.976 81.624 165.616 85.24 166.896 87.224C168.24 89.208 170.096 90.2 172.464 90.2C177.392 90.2 179.856 85.592 179.856 76.376ZM195.036 68.696V62.744H213.468V68.696H195.036ZM222.392 95V27.8H235.448C240.312 27.8 244.056 29.368 246.68 32.504C249.304 35.576 250.616 41.176 250.616 49.304V73.496C250.616 81.624 249.304 87.256 246.68 90.392C244.056 93.464 240.312 95 235.448 95H222.392ZM243.032 75.224V47.672C243.032 38.52 240.504 33.944 235.448 33.944H230.072V88.952H235.448C240.504 88.952 243.032 84.376 243.032 75.224ZM290.096 47.864V74.936C290.096 83.064 288.784 88.696 286.16 91.832C283.6 94.904 279.888 96.44 275.024 96.44C270.224 96.44 266.512 94.904 263.888 91.832C261.328 88.696 260.048 83.064 260.048 74.936V47.864C260.048 39.736 261.328 34.136 263.888 31.064C266.512 27.928 270.224 26.36 275.024 26.36C279.888 26.36 283.6 27.928 286.16 31.064C288.784 34.136 290.096 39.736 290.096 47.864ZM282.512 76.376V46.424C282.512 37.208 280.048 32.6 275.12 32.6C272.752 32.6 270.896 33.592 269.552 35.576C268.272 37.56 267.632 41.176 267.632 46.424V76.376C267.632 81.624 268.272 85.24 269.552 87.224C270.896 89.208 272.752 90.2 275.12 90.2C280.048 90.2 282.512 85.592 282.512 76.376Z" fill="white"/>
</svg>
