<svg width="28" height="26" viewBox="0 0 28 26" fill="none" xmlns="http://www.w3.org/2000/svg">
<path d="M14 0.51001C6.3 0.51001 0 6.22328 0 13.2062C0 20.1891 6.3 25.9023 14 25.9023C21.7 25.9023 28 20.1891 28 13.2062C28 6.22328 21.7 0.51001 14 0.51001ZM14 23.3631C7.826 23.3631 2.8 18.8052 2.8 13.2062C2.8 7.60716 7.826 3.04924 14 3.04924C20.174 3.04924 25.2 7.60716 25.2 13.2062C25.2 18.8052 20.174 23.3631 14 23.3631ZM14.7 6.85809H12.6V14.4758L19.88 18.5386L21 16.8881L14.7 13.4601V6.85809Z" fill="white"/>
</svg>
