<svg width="33" height="33" viewBox="0 0 33 33" fill="none" xmlns="http://www.w3.org/2000/svg">
<path d="M29.5624 5.5H26.5832V7.33333H29.3332V27.5H3.66658V7.33333H6.41658V5.5H3.43741C3.22313 5.50358 3.01165 5.54934 2.81505 5.63467C2.61846 5.71999 2.4406 5.84321 2.29163 5.99728C2.14267 6.15136 2.02551 6.33327 1.94686 6.53263C1.86821 6.73198 1.8296 6.94489 1.83324 7.15917V27.6742C1.8296 27.8884 1.86821 28.1013 1.94686 28.3007C2.02551 28.5001 2.14267 28.682 2.29163 28.8361C2.4406 28.9901 2.61846 29.1133 2.81505 29.1987C3.01165 29.284 3.22313 29.3298 3.43741 29.3333H29.5624C29.7767 29.3298 29.9882 29.284 30.1848 29.1987C30.3814 29.1133 30.5592 28.9901 30.7082 28.8361C30.8572 28.682 30.9743 28.5001 31.053 28.3007C31.1316 28.1013 31.1702 27.8884 31.1666 27.6742V7.15917C31.1702 6.94489 31.1316 6.73198 31.053 6.53263C30.9743 6.33327 30.8572 6.15136 30.7082 5.99728C30.5592 5.84321 30.3814 5.71999 30.1848 5.63467C29.9882 5.54934 29.7767 5.50358 29.5624 5.5Z" fill="#474C76"/>
<path d="M7.3335 12.833H9.16683V14.6663H7.3335V12.833Z" fill="#474C76"/>
<path d="M12.8335 12.833H14.6668V14.6663H12.8335V12.833Z" fill="#474C76"/>
<path d="M18.3335 12.833H20.1668V14.6663H18.3335V12.833Z" fill="#474C76"/>
<path d="M23.8335 12.833H25.6668V14.6663H23.8335V12.833Z" fill="#474C76"/>
<path d="M7.3335 17.417H9.16683V19.2503H7.3335V17.417Z" fill="#474C76"/>
<path d="M12.8335 17.417H14.6668V19.2503H12.8335V17.417Z" fill="#474C76"/>
<path d="M18.3335 17.417H20.1668V19.2503H18.3335V17.417Z" fill="#474C76"/>
<path d="M23.8335 17.417H25.6668V19.2503H23.8335V17.417Z" fill="#474C76"/>
<path d="M7.3335 22H9.16683V23.8333H7.3335V22Z" fill="#474C76"/>
<path d="M12.8335 22H14.6668V23.8333H12.8335V22Z" fill="#474C76"/>
<path d="M18.3335 22H20.1668V23.8333H18.3335V22Z" fill="#474C76"/>
<path d="M23.8335 22H25.6668V23.8333H23.8335V22Z" fill="#474C76"/>
<path d="M9.16667 9.16634C9.40978 9.16634 9.64294 9.06976 9.81485 8.89786C9.98676 8.72595 10.0833 8.49279 10.0833 8.24967V2.74967C10.0833 2.50656 9.98676 2.2734 9.81485 2.10149C9.64294 1.92958 9.40978 1.83301 9.16667 1.83301C8.92355 1.83301 8.69039 1.92958 8.51849 2.10149C8.34658 2.2734 8.25 2.50656 8.25 2.74967V8.24967C8.25 8.49279 8.34658 8.72595 8.51849 8.89786C8.69039 9.06976 8.92355 9.16634 9.16667 9.16634Z" fill="#474C76"/>
<path d="M23.8332 9.16634C24.0763 9.16634 24.3094 9.06976 24.4814 8.89786C24.6533 8.72595 24.7498 8.49279 24.7498 8.24967V2.74967C24.7498 2.50656 24.6533 2.2734 24.4814 2.10149C24.3094 1.92958 24.0763 1.83301 23.8332 1.83301C23.5901 1.83301 23.3569 1.92958 23.185 2.10149C23.0131 2.2734 22.9165 2.50656 22.9165 2.74967V8.24967C22.9165 8.49279 23.0131 8.72595 23.185 8.89786C23.3569 9.06976 23.5901 9.16634 23.8332 9.16634Z" fill="#474C76"/>
<path d="M11.9165 5.5H21.0832V7.33333H11.9165V5.5Z" fill="#474C76"/>
</svg>
