<svg width="62" height="55" viewBox="0 0 62 55" fill="none" xmlns="http://www.w3.org/2000/svg">
<path fill-rule="evenodd" clip-rule="evenodd" d="M24.4727 0.5625C23.4696 0.5625 22.5329 1.0638 21.9765 1.8984L15.7421 11.25H3.5625C1.90564 11.25 0.5625 12.5931 0.5625 14.25V51.4375C0.5625 53.0944 1.90564 54.4375 3.5625 54.4375H58.5625C60.2194 54.4375 61.5625 53.0944 61.5625 51.4375V14.25C61.5625 12.5931 60.2194 11.25 58.5625 11.25H46.3829L40.1485 1.8984C39.5921 1.0638 38.6554 0.5625 37.6523 0.5625H24.4727ZM18.7735 13.9141L25.0079 4.5625H37.1171L43.3515 13.9141C43.9079 14.7487 44.8446 15.25 45.8477 15.25H57.5625V50.4375H4.5625V15.25H16.2773C17.2804 15.25 18.2171 14.7487 18.7735 13.9141ZM42.3125 31.0625C42.3125 37.2757 37.2757 42.3125 31.0625 42.3125C24.8493 42.3125 19.8125 37.2757 19.8125 31.0625C19.8125 24.8493 24.8493 19.8125 31.0625 19.8125C37.2757 19.8125 42.3125 24.8493 42.3125 31.0625ZM45.3125 31.0625C45.3125 38.9326 38.9326 45.3125 31.0625 45.3125C23.1924 45.3125 16.8125 38.9326 16.8125 31.0625C16.8125 23.1924 23.1924 16.8125 31.0625 16.8125C38.9326 16.8125 45.3125 23.1924 45.3125 31.0625Z" fill="#EAEAEA"/>
</svg>
