<svg width="36" height="36" viewBox="0 0 36 36" fill="none" xmlns="http://www.w3.org/2000/svg">
<path fill-rule="evenodd" clip-rule="evenodd" d="M3.5999 7.20001C3.28164 7.20001 2.97642 7.32644 2.75137 7.55148C2.52633 7.77653 2.3999 8.08175 2.3999 8.40001C2.3999 8.71827 2.52633 9.0235 2.75137 9.24854C2.97642 9.47358 3.28164 9.60001 3.5999 9.60001H32.3999C32.7182 9.60001 33.0234 9.47358 33.2484 9.24854C33.4735 9.0235 33.5999 8.71827 33.5999 8.40001C33.5999 8.08175 33.4735 7.77653 33.2484 7.55148C33.0234 7.32644 32.7182 7.20001 32.3999 7.20001H3.5999ZM2.3999 18C2.3999 17.6818 2.52633 17.3765 2.75137 17.1515C2.97642 16.9264 3.28164 16.8 3.5999 16.8H32.3999C32.7182 16.8 33.0234 16.9264 33.2484 17.1515C33.4735 17.3765 33.5999 17.6818 33.5999 18C33.5999 18.3183 33.4735 18.6235 33.2484 18.8485C33.0234 19.0736 32.7182 19.2 32.3999 19.2H3.5999C3.28164 19.2 2.97642 19.0736 2.75137 18.8485C2.52633 18.6235 2.3999 18.3183 2.3999 18ZM2.3999 27.6C2.3999 27.2818 2.52633 26.9765 2.75137 26.7515C2.97642 26.5264 3.28164 26.4 3.5999 26.4H32.3999C32.7182 26.4 33.0234 26.5264 33.2484 26.7515C33.4735 26.9765 33.5999 27.2818 33.5999 27.6C33.5999 27.9183 33.4735 28.2235 33.2484 28.4485C33.0234 28.6736 32.7182 28.8 32.3999 28.8H3.5999C3.28164 28.8 2.97642 28.6736 2.75137 28.4485C2.52633 28.2235 2.3999 27.9183 2.3999 27.6Z" fill="white"/>
</svg>
