<svg width="82" height="82" viewBox="0 0 82 82" fill="none" xmlns="http://www.w3.org/2000/svg">
<path d="M41 5.125C21.1887 5.125 5.125 21.1887 5.125 41C5.125 60.8113 21.1887 76.875 41 76.875C60.8113 76.875 76.875 60.8113 76.875 41C76.875 21.1887 60.8113 5.125 41 5.125ZM41 70.7891C24.552 70.7891 11.2109 57.448 11.2109 41C11.2109 24.552 24.552 11.2109 41 11.2109C57.448 11.2109 70.7891 24.552 70.7891 41C70.7891 57.448 57.448 70.7891 41 70.7891Z" fill="white"/>
<path d="M41.0017 21C37.5547 21.0044 34.2503 22.3874 31.8129 24.8457C29.3756 27.3039 28.0044 30.6368 28 34.1133H34.6099C34.6099 30.5567 37.4786 27.6667 41.0017 27.6667C44.5247 27.6667 47.3934 30.5567 47.3934 34.1133C47.3934 36.1067 45.8037 37.5533 43.3746 39.5333C42.581 40.1603 41.8189 40.8267 41.0909 41.53C37.7926 44.8533 37.6967 48.3833 37.6967 48.7767V51H44.3066L44.3033 48.89C44.3066 48.8367 44.4124 47.6033 45.7608 46.2467C46.2565 45.7467 46.8812 45.2467 47.5289 44.72C50.1035 42.6167 54 39.44 54 34.1133C53.9974 30.6369 52.6272 27.3035 50.1902 24.8449C47.7532 22.3864 44.4485 21.0035 41.0017 21ZM37.6967 54.3333H44.3066V61H37.6967V54.3333Z" fill="white"/>
</svg>
